<svg id="Layer_1" height="512" viewBox="0 0 512 512" width="512" xmlns="http://www.w3.org/2000/svg" data-name="Layer 1"><path d="m477.33 192.14v66.66l-.32 1.39a23.753 23.753 0 0 0 -5.02-.53h-106.66v-67.52a53.217 53.217 0 0 1 16.14-38.22 59.114 59.114 0 0 0 17.86-42.37v-20.38h44v20.38a60.364 60.364 0 0 0 18.22 42.73l.16.15a53.138 53.138 0 0 1 15.62 37.71z" fill="#4689d3"/><path d="m443.33 52.1v39.07h-44v-39.07a12.005 12.005 0 0 1 12.01-12h19.99a12 12 0 0 1 12 12z" fill="#b0b5ca"/><path d="m312 258.8v.86h-112v-67.52a53.176 53.176 0 0 1 16.14-38.22 59.114 59.114 0 0 0 17.86-42.37v-20.38h44v20.38a60.281 60.281 0 0 0 18.22 42.73l.15.15a53.106 53.106 0 0 1 15.63 37.71z" fill="#4689d3"/><path d="m278 52.1v39.07h-44v-39.07a12.005 12.005 0 0 1 12.01-12h19.98a12 12 0 0 1 12.01 12z" fill="#b0b5ca"/><path d="m146.67 258.8v.86h-106.66a23.753 23.753 0 0 0 -5.02.53l-.32-1.39v-66.66a53.136 53.136 0 0 1 16.14-38.22 59.114 59.114 0 0 0 17.86-42.37v-20.38h44v20.38a60.281 60.281 0 0 0 18.22 42.73l.15.15a53.148 53.148 0 0 1 15.63 37.71z" fill="#4689d3"/><path d="m112.67 52.1v39.07h-44v-39.07a12 12 0 0 1 12-12h19.99a12.005 12.005 0 0 1 12.01 12z" fill="#b0b5ca"/><path d="m385.33 192.14a53.217 53.217 0 0 1 16.14-38.22 59.114 59.114 0 0 0 17.86-42.37v-20.38h-20v20.38a59.114 59.114 0 0 1 -17.86 42.37 53.217 53.217 0 0 0 -16.14 38.22v67.52h20z" fill="#5fa8ed"/><path d="m471.99 259.66a23.753 23.753 0 0 1 5.02.53l.122-.53z" fill="#5fa8ed"/><path d="m431.335 40.1h-20a12.005 12.005 0 0 0 -12.01 12v39.07h20v-39.07a12.006 12.006 0 0 1 12.01-12z" fill="#ccd3df"/><path d="m220 192.14a53.176 53.176 0 0 1 16.14-38.22 59.114 59.114 0 0 0 17.86-42.37v-20.38h-20v20.38a59.114 59.114 0 0 1 -17.86 42.37 53.176 53.176 0 0 0 -16.14 38.22v67.52h20z" fill="#5fa8ed"/><path d="m266 40.1h-19.99a12.005 12.005 0 0 0 -12.01 12v39.07h20v-39.07a12.006 12.006 0 0 1 12-12z" fill="#ccd3df"/><path d="m54.67 258.8v-66.66a53.136 53.136 0 0 1 16.14-38.22 59.114 59.114 0 0 0 17.86-42.37v-20.38h-20v20.38a59.114 59.114 0 0 1 -17.86 42.37 53.136 53.136 0 0 0 -16.14 38.22v66.66l.32 1.39a23.753 23.753 0 0 1 5.02-.53h14.858z" fill="#5fa8ed"/><path d="m100.665 40.1h-20a12 12 0 0 0 -12 12v39.07h20v-39.07a12 12 0 0 1 12-12z" fill="#ccd3df"/><path d="m496 365.23v82.66a24.01 24.01 0 0 1 -24.01 24.01h-431.98a24.01 24.01 0 0 1 -24.01-24.01v-82.66z" fill="#e8a467"/><path d="m496 283.67v81.32h-480v-81.32a24.007 24.007 0 0 1 18.99-23.48 23.753 23.753 0 0 1 5.02-.53h431.98a23.753 23.753 0 0 1 5.02.53 24.007 24.007 0 0 1 18.99 23.48z" fill="#e29454"/><path d="m84.99 260.19a23.753 23.753 0 0 1 5.02-.53h-50a23.753 23.753 0 0 0 -5.02.53 24.007 24.007 0 0 0 -18.99 23.48v81.32h50v-81.32a24.007 24.007 0 0 1 18.99-23.48z" fill="#d18954"/><path d="m66 447.89v-82.66h-50v82.66a24.01 24.01 0 0 0 24.01 24.01h50a24.01 24.01 0 0 1 -24.01-24.01z" fill="#d18954"/><circle cx="256" cy="312.33" fill="#f4f8fc" r="15"/><circle cx="256" cy="418.57" fill="#f4f8fc" r="15"/><path d="m436.33 201.64v25a15 15 0 0 1 -30 0v-25a15 15 0 1 1 30 0z" fill="#fb6771"/><path d="m271 201.64v25a15 15 0 0 1 -30 0v-25a15 15 0 0 1 30 0z" fill="#fb6771"/><path d="m105.67 201.64v25a15 15 0 0 1 -30 0v-25a15 15 0 1 1 30 0z" fill="#fb6771"/><g fill="#284268"><path d="m482.33 256.582v-64.435a58.527 58.527 0 0 0 -17.09-41.258l-.107-.1-.093-.085a55.692 55.692 0 0 1 -16.71-39.15v-59.454a17.019 17.019 0 0 0 -17-17h-19.99a17.024 17.024 0 0 0 -17.01 17v59.453a54.413 54.413 0 0 1 -16.343 38.78 58.529 58.529 0 0 0 -17.657 41.807v62.52h-43.33v-62.513a58.488 58.488 0 0 0 -17.088-41.247l-.2-.2a55.6 55.6 0 0 1 -16.712-39.15v-59.45a17.024 17.024 0 0 0 -17.01-17h-19.98a17.024 17.024 0 0 0 -17.01 17v59.453a54.413 54.413 0 0 1 -16.343 38.78 58.477 58.477 0 0 0 -17.657 41.807v62.52h-43.33v-62.513a58.527 58.527 0 0 0 -17.088-41.247l-.2-.2a55.6 55.6 0 0 1 -16.712-39.15v-59.45a17.024 17.024 0 0 0 -17.01-17h-19.99a17.019 17.019 0 0 0 -17 17v59.453a54.413 54.413 0 0 1 -16.341 38.778 58.443 58.443 0 0 0 -17.659 41.809v64.443a29.15 29.15 0 0 0 -18.67 27.087v81.32c0 .041.011.079.012.12s-.012.079-.012.12v82.66a29.043 29.043 0 0 0 29.01 29.01h431.98a29.043 29.043 0 0 0 29.01-29.01v-82.66c0-.041-.011-.079-.012-.12s.012-.079.012-.12v-81.32a29.147 29.147 0 0 0 -18.67-27.088zm-70.99-211.482h19.99a7.008 7.008 0 0 1 7 7v34.07h-34v-34.07a7.013 7.013 0 0 1 7.01-7zm-41.01 147.037a48.487 48.487 0 0 1 14.63-34.637 64.467 64.467 0 0 0 19.37-45.95v-15.38h34v15.42a65.827 65.827 0 0 0 19.8 46.335l.1.1a48.468 48.468 0 0 1 14.1 34.118v62.529c-.113 0-.226-.009-.34-.009h-101.66zm-124.32-147.037h19.98a7.013 7.013 0 0 1 7.01 7v34.07h-34v-34.07a7.013 7.013 0 0 1 7.01-7zm-41.01 147.033a48.437 48.437 0 0 1 14.63-34.633 64.467 64.467 0 0 0 19.37-45.95v-15.38h34v15.417a65.647 65.647 0 0 0 19.679 46.223l.163.163a47.789 47.789 0 0 1 14.158 34.167v62.52h-102zm-124.33-147.033h19.99a7.013 7.013 0 0 1 7.01 7v34.07h-34v-34.07a7.008 7.008 0 0 1 7-7zm-26.37 112.4a64.467 64.467 0 0 0 19.37-45.95v-15.38h34v15.417a65.647 65.647 0 0 0 19.679 46.223l.161.161a48.471 48.471 0 0 1 14.16 34.169v62.52h-101.66c-.114 0-.227.008-.34.009v-62.536a48.4 48.4 0 0 1 14.63-34.633zm-33.3 126.17a19.076 19.076 0 0 1 15.027-18.589h.02a18.768 18.768 0 0 1 3.963-.417h431.98a18.835 18.835 0 0 1 3.983.421 19.076 19.076 0 0 1 15.027 18.585v76.32h-470zm470 164.22a19.032 19.032 0 0 1 -19.01 19.01h-431.98a19.032 19.032 0 0 1 -19.01-19.01v-77.66h470z"/><path d="m256 292.33a20 20 0 1 0 20 20 20.023 20.023 0 0 0 -20-20zm0 30a10 10 0 1 1 10-10 10.011 10.011 0 0 1 -10 10z"/><path d="m256 438.57a20 20 0 1 0 -20-20 20.023 20.023 0 0 0 20 20zm0-30a10 10 0 1 1 -10 10 10.011 10.011 0 0 1 10-10z"/><path d="m90.67 246.64a20.023 20.023 0 0 0 20-20v-25a20 20 0 0 0 -40 0v25a20 20 0 0 0 20 20zm-10-45a10 10 0 1 1 20 0v25a10 10 0 0 1 -20 0z"/><path d="m256 181.64a20.023 20.023 0 0 0 -20 20v25a20.021 20.021 0 0 0 20 20 20.023 20.023 0 0 0 20-20v-25a20 20 0 0 0 -20-20zm10 45a10.011 10.011 0 0 1 -10 10 10.021 10.021 0 0 1 -10-10v-25a10 10 0 0 1 20 0z"/><path d="m421.33 181.64a20.023 20.023 0 0 0 -20 20v25a20 20 0 1 0 40 0v-25a19.989 19.989 0 0 0 -20-20zm10 45a10 10 0 0 1 -20 0v-25a10 10 0 1 1 20 0z"/></g></svg>